<svg width="172" height="140" fill="none" xmlns="http://www.w3.org/2000/svg"><g clip-path="url('#clip0_601_5')"><path d="M171.505 16.499a70.321 70.321 0 0 1-20.208 5.54c7.264-4.354 12.844-11.25 15.471-19.466a70.449 70.449 0 0 1-22.345 8.538A35.136 35.136 0 0 0 118.74 0C99.308 0 83.553 15.754 83.553 35.185c0 2.758.311 5.444.912 8.019C55.22 41.737 29.295 27.728 11.94 6.44a35.02 35.02 0 0 0-4.764 17.69c0 12.207 6.211 22.977 15.653 29.286a35.047 35.047 0 0 1-15.937-4.4c-.004.146-.004.294-.004.442 0 17.048 12.129 31.268 28.225 34.503a35.222 35.222 0 0 1-15.89.602c4.478 13.979 17.472 24.152 32.87 24.435-12.042 9.438-27.214 15.063-43.7 15.063-2.84 0-5.64-.167-8.393-.492 15.572 9.984 34.067 15.809 53.938 15.809 64.72 0 100.113-53.615 100.113-100.113 0-1.526-.035-3.043-.102-4.553a71.478 71.478 0 0 0 17.556-18.213Z" fill="#fff"/></g><defs><clipPath id="clip0_601_5"><path fill="#fff" d="M0 0h171.505v139.378H0z"/></clipPath></defs></svg>